<svg width="170" height="37" viewBox="0 0 170 37" fill="none" xmlns="http://www.w3.org/2000/svg">
<path d="M20.5505 30.17C20.5864 26.4986 19.6556 23.513 18.4716 23.5014C17.2875 23.4898 16.2986 26.4567 16.2627 30.1281C16.2268 33.7995 17.1576 36.7852 18.3416 36.7967C19.5257 36.8083 20.5147 33.8414 20.5505 30.17Z" fill="#FF6B2C"/>
<path d="M13.6836 29.3361C15.6989 26.267 16.5302 23.2521 15.5404 22.6022C14.5506 21.9523 12.1145 23.9134 10.0993 26.9825C8.08397 30.0517 7.25269 33.0665 8.24245 33.7165C9.23228 34.3664 11.6683 32.4053 13.6836 29.3361Z" fill="#FF6B2C"/>
<path d="M8.34934 24.9328C11.7041 23.4406 14.0334 21.3539 13.5522 20.272C13.071 19.1901 9.96138 19.5227 6.60662 21.0149C3.25193 22.5071 0.922548 24.5938 1.40379 25.6758C1.88502 26.7577 4.99465 26.425 8.34934 24.9328Z" fill="#FF6B2C"/>
<path d="M13.1495 17.238C13.3296 16.0677 10.5339 14.6662 6.90505 14.1076C3.27616 13.5491 0.188368 14.0451 0.00823787 15.2154C-0.171892 16.3857 2.62385 17.7871 6.25272 18.3457C9.88158 18.9043 12.9694 18.4083 13.1495 17.238Z" fill="#FF6B2C"/>
<path d="M14.4522 14.45C15.2364 13.5628 13.6418 10.8725 10.8907 8.44101C8.13957 6.00962 5.27366 4.75781 4.48952 5.64506C3.70538 6.53233 5.29994 9.22262 8.05109 11.6541C10.8022 14.0855 13.6681 15.3373 14.4522 14.45Z" fill="#FF6B2C"/>
<path d="M17.0471 12.8207C18.1865 12.4983 18.2997 9.37291 17.3 5.84005C16.3003 2.30718 14.5663 -0.295413 13.4269 0.0269971C12.2875 0.349397 12.1743 3.47472 13.174 7.00762C14.1737 10.5404 15.9078 13.1431 17.0471 12.8207Z" fill="#FF6B2C"/>
<path d="M24.0927 7.11753C25.1619 3.60505 25.1104 0.478111 23.9776 0.133301C22.8448 -0.211519 21.0597 2.35637 19.9905 5.86884C18.9214 9.38131 18.9729 12.5082 20.1057 12.853C21.2385 13.1978 23.0236 10.63 24.0927 7.11753Z" fill="#FF6B2C"/>
<path d="M29.127 11.8636C31.9252 9.48641 33.572 6.82776 32.8053 5.92539C32.0387 5.02299 29.1488 6.21856 26.3508 8.59571C23.5526 10.9729 21.9058 13.6315 22.6724 14.5339C23.4391 15.4363 26.3289 14.2408 29.127 11.8636Z" fill="#FF6B2C"/>
<path d="M30.7917 18.5799C34.4309 18.093 37.2537 16.7469 37.0967 15.5733C36.9397 14.3997 33.8623 13.8429 30.2231 14.3297C26.584 14.8166 23.7611 16.1627 23.9181 17.3364C24.0752 18.51 27.1525 19.0668 30.7917 18.5799Z" fill="#FF6B2C"/>
<path d="M35.4861 26.0112C35.9886 24.939 33.7008 22.8068 30.3762 21.2487C27.0516 19.6906 23.9491 19.2968 23.4467 20.369C22.9442 21.4412 25.2319 23.5734 28.5566 25.1315C31.8811 26.6895 34.9836 27.0834 35.4861 26.0112Z" fill="#FF6B2C"/>
<path d="M28.493 33.9223C29.4954 33.2921 28.7237 30.2614 26.7694 27.1531C24.8151 24.0449 22.4181 22.0362 21.4157 22.6664C20.4133 23.2966 21.185 26.3274 23.1393 29.4356C25.0937 32.5438 27.4906 34.5526 28.493 33.9223Z" fill="#FF6B2C"/>
<path d="M48.1859 18.0184C48.1859 16.6317 48.4859 15.3984 49.0859 14.3184C49.6859 13.2251 50.5192 12.3784 51.5859 11.7784C52.6659 11.1651 53.8859 10.8584 55.2459 10.8584C56.9125 10.8584 58.3392 11.2984 59.5259 12.1784C60.7125 13.0584 61.5059 14.2584 61.9059 15.7784H58.1459C57.8659 15.1917 57.4659 14.7451 56.9459 14.4384C56.4392 14.1317 55.8592 13.9784 55.2059 13.9784C54.1525 13.9784 53.2992 14.3451 52.6459 15.0784C51.9925 15.8117 51.6659 16.7917 51.6659 18.0184C51.6659 19.2451 51.9925 20.2251 52.6459 20.9584C53.2992 21.6917 54.1525 22.0584 55.2059 22.0584C55.8592 22.0584 56.4392 21.9051 56.9459 21.5984C57.4659 21.2917 57.8659 20.8451 58.1459 20.2584H61.9059C61.5059 21.7784 60.7125 22.9784 59.5259 23.8584C58.3392 24.7251 56.9125 25.1584 55.2459 25.1584C53.8859 25.1584 52.6659 24.8584 51.5859 24.2584C50.5192 23.6451 49.6859 22.7984 49.0859 21.7184C48.4859 20.6384 48.1859 19.4051 48.1859 18.0184ZM63.3203 19.4584C63.3203 18.3117 63.5336 17.3051 63.9603 16.4384C64.4003 15.5717 64.9936 14.9051 65.7403 14.4384C66.4869 13.9717 67.3203 13.7384 68.2403 13.7384C69.0269 13.7384 69.7136 13.8984 70.3003 14.2184C70.9003 14.5384 71.3603 14.9584 71.6803 15.4784V13.8984H75.1003V25.0584H71.6803V23.4784C71.3469 23.9984 70.8803 24.4184 70.2803 24.7384C69.6936 25.0584 69.0069 25.2184 68.2203 25.2184C67.3136 25.2184 66.4869 24.9851 65.7403 24.5184C64.9936 24.0384 64.4003 23.3651 63.9603 22.4984C63.5336 21.6184 63.3203 20.6051 63.3203 19.4584ZM71.6803 19.4784C71.6803 18.6251 71.4403 17.9517 70.9603 17.4584C70.4936 16.9651 69.9203 16.7184 69.2403 16.7184C68.5603 16.7184 67.9803 16.9651 67.5003 17.4584C67.0336 17.9384 66.8003 18.6051 66.8003 19.4584C66.8003 20.3117 67.0336 20.9917 67.5003 21.4984C67.9803 21.9917 68.5603 22.2384 69.2403 22.2384C69.9203 22.2384 70.4936 21.9917 70.9603 21.4984C71.4403 21.0051 71.6803 20.3317 71.6803 19.4784ZM80.9945 15.7584C81.3945 15.1451 81.8945 14.6651 82.4945 14.3184C83.0945 13.9584 83.7611 13.7784 84.4945 13.7784V17.3984H83.5545C82.7011 17.3984 82.0611 17.5851 81.6345 17.9584C81.2078 18.3184 80.9945 18.9584 80.9945 19.8784V25.0584H77.5745V13.8984H80.9945V15.7584ZM96.6492 19.2984C96.6492 19.6184 96.6292 19.9517 96.5892 20.2984H88.8492C88.9025 20.9917 89.1225 21.5251 89.5092 21.8984C89.9092 22.2584 90.3958 22.4384 90.9692 22.4384C91.8225 22.4384 92.4158 22.0784 92.7492 21.3584H96.3892C96.2025 22.0917 95.8625 22.7517 95.3692 23.3384C94.8892 23.9251 94.2825 24.3851 93.5492 24.7184C92.8158 25.0517 91.9958 25.2184 91.0892 25.2184C89.9958 25.2184 89.0225 24.9851 88.1692 24.5184C87.3158 24.0517 86.6492 23.3851 86.1692 22.5184C85.6892 21.6517 85.4492 20.6384 85.4492 19.4784C85.4492 18.3184 85.6825 17.3051 86.1492 16.4384C86.6292 15.5717 87.2958 14.9051 88.1492 14.4384C89.0025 13.9717 89.9825 13.7384 91.0892 13.7384C92.1692 13.7384 93.1292 13.9651 93.9692 14.4184C94.8092 14.8717 95.4625 15.5184 95.9292 16.3584C96.4092 17.1984 96.6492 18.1784 96.6492 19.2984ZM93.1492 18.3984C93.1492 17.8117 92.9492 17.3451 92.5492 16.9984C92.1492 16.6517 91.6492 16.4784 91.0492 16.4784C90.4758 16.4784 89.9892 16.6451 89.5892 16.9784C89.2025 17.3117 88.9625 17.7851 88.8692 18.3984H93.1492ZM108.973 19.2984C108.973 19.6184 108.953 19.9517 108.913 20.2984H101.173C101.227 20.9917 101.447 21.5251 101.833 21.8984C102.233 22.2584 102.72 22.4384 103.293 22.4384C104.147 22.4384 104.74 22.0784 105.073 21.3584H108.713C108.527 22.0917 108.187 22.7517 107.693 23.3384C107.213 23.9251 106.607 24.3851 105.873 24.7184C105.14 25.0517 104.32 25.2184 103.413 25.2184C102.32 25.2184 101.347 24.9851 100.493 24.5184C99.64 24.0517 98.9734 23.3851 98.4934 22.5184C98.0134 21.6517 97.7734 20.6384 97.7734 19.4784C97.7734 18.3184 98.0067 17.3051 98.4734 16.4384C98.9534 15.5717 99.62 14.9051 100.473 14.4384C101.327 13.9717 102.307 13.7384 103.413 13.7384C104.493 13.7384 105.453 13.9651 106.293 14.4184C107.133 14.8717 107.787 15.5184 108.253 16.3584C108.733 17.1984 108.973 18.1784 108.973 19.2984ZM105.473 18.3984C105.473 17.8117 105.273 17.3451 104.873 16.9984C104.473 16.6517 103.973 16.4784 103.373 16.4784C102.8 16.4784 102.313 16.6451 101.913 16.9784C101.527 17.3117 101.287 17.7851 101.193 18.3984H105.473ZM114.198 15.7584C114.598 15.1451 115.098 14.6651 115.698 14.3184C116.298 13.9584 116.964 13.7784 117.698 13.7784V17.3984H116.758C115.904 17.3984 115.264 17.5851 114.838 17.9584C114.411 18.3184 114.198 18.9584 114.198 19.8784V25.0584H110.778V13.8984H114.198V15.7584ZM132.711 11.0184V13.7584H126.991V16.7184H131.271V19.3784H126.991V25.0584H123.571V11.0184H132.711ZM137.928 10.2584V25.0584H134.508V10.2584H137.928ZM145.487 25.2184C144.393 25.2184 143.407 24.9851 142.527 24.5184C141.66 24.0517 140.973 23.3851 140.467 22.5184C139.973 21.6517 139.727 20.6384 139.727 19.4784C139.727 18.3317 139.98 17.3251 140.487 16.4584C140.993 15.5784 141.687 14.9051 142.567 14.4384C143.447 13.9717 144.433 13.7384 145.527 13.7384C146.62 13.7384 147.607 13.9717 148.487 14.4384C149.367 14.9051 150.06 15.5784 150.567 16.4584C151.073 17.3251 151.327 18.3317 151.327 19.4784C151.327 20.6251 151.067 21.6384 150.547 22.5184C150.04 23.3851 149.34 24.0517 148.447 24.5184C147.567 24.9851 146.58 25.2184 145.487 25.2184ZM145.487 22.2584C146.14 22.2584 146.693 22.0184 147.147 21.5384C147.613 21.0584 147.847 20.3717 147.847 19.4784C147.847 18.5851 147.62 17.8984 147.167 17.4184C146.727 16.9384 146.18 16.6984 145.527 16.6984C144.86 16.6984 144.307 16.9384 143.867 17.4184C143.427 17.8851 143.207 18.5717 143.207 19.4784C143.207 20.3717 143.42 21.0584 143.847 21.5384C144.287 22.0184 144.833 22.2584 145.487 22.2584ZM169.161 13.8984L166.141 25.0584H162.361L160.601 17.8184L158.781 25.0584H155.021L151.981 13.8984H155.401L156.981 21.8784L158.861 13.8984H162.481L164.381 21.8384L165.941 13.8984H169.161Z" fill="white"/>
</svg>
